<?xml version="1.0" encoding="UTF-8" standalone="no"?>
<!-- Created with Inkscape (http://www.inkscape.org/) -->

<svg
   width="200mm"
   height="200mm"
   viewBox="0 0 200 200"
   version="1.1"
   id="svg1"
   inkscape:version="1.4.2 (f4327f4, 2025-05-13)"
   sodipodi:docname="maze.svg"
   xmlns:inkscape="http://www.inkscape.org/namespaces/inkscape"
   xmlns:sodipodi="http://sodipodi.sourceforge.net/DTD/sodipodi-0.dtd"
   xmlns="http://www.w3.org/2000/svg"
   xmlns:svg="http://www.w3.org/2000/svg">
  <sodipodi:namedview
     id="namedview1"
     pagecolor="#ffffff"
     bordercolor="#000000"
     borderopacity="0.25"
     inkscape:showpageshadow="2"
     inkscape:pageopacity="0.0"
     inkscape:pagecheckerboard="true"
     inkscape:deskcolor="#d1d1d1"
     inkscape:document-units="mm"
     inkscape:zoom="0.76167929"
     inkscape:cx="516.62163"
     inkscape:cy="296.05636"
     inkscape:window-width="1920"
     inkscape:window-height="1057"
     inkscape:window-x="-8"
     inkscape:window-y="-8"
     inkscape:window-maximized="1"
     inkscape:current-layer="layer1" />
  <defs
     id="defs1">
    <clipPath
       clipPathUnits="userSpaceOnUse"
       id="clipPath69">
      <path
         id="path70"
         style="fill:#ff0000;fill-opacity:1;fill-rule:nonzero;stroke:none;stroke-width:0.264583"
         d="m 19.999813,0 v 149.38055 c 0.117958,-0.005 0.237331,-0.009 0.358118,-0.0119 2.247132,-0.0479 4.369413,0.72776 6.393923,1.61541 0.762995,0.38469 1.527125,0.80288 2.246892,1.28312 0.290896,-1.57675 0.526555,-3.16357 0.74104,-4.75526 0.442989,-3.14807 1.01678,-6.27879 1.30793,-9.44697 0.40345,-4.13522 0.860071,-8.27018 0.963766,-12.42715 0.07923,-4.6644 -0.09554,-9.32592 -0.449585,-13.97796 -0.165563,-1.88033 -0.198715,-2.46449 -0.429429,-4.30775 -0.250267,-1.99946 -0.620221,-3.97784 -0.916226,-5.97017 -0.09141,-0.61529 -0.165068,-1.23295 -0.247528,-1.849503 -0.590455,-4.20226 -1.119973,-8.420782 -1.093473,-12.674163 0.03048,-4.486862 0.06225,-8.974362 0.213424,-13.459127 0.161353,-3.891105 0.38205,-7.786089 0.970481,-11.640116 0.600871,-3.749963 1.259623,-7.490418 1.778188,-11.253576 0.754364,-4.124968 1.636122,-8.243832 3.033924,-12.205456 1.425572,-3.931907 2.990622,-7.859067 5.775873,-11.056689 1.301019,-1.326971 1.773642,-1.959502 3.364137,-2.969329 2.394908,-1.520562 5.153827,-2.125442 7.941117,-2.3859 1.568066,-0.104647 2.671244,-0.216096 4.269507,-0.153996 2.708979,0.105259 5.362728,0.727087 7.873936,1.733744 0.558922,0.259081 1.127631,0.497243 1.676385,0.777214 2.832282,1.445014 5.397926,3.398372 7.477064,5.80688 1.097425,1.36584 1.529249,1.805493 2.433441,3.336747 0.361016,0.611384 0.678567,1.242735 0.967383,1.887223 0.285282,-0.361281 0.722482,-0.702831 1.33222,-0.978233 0.601628,-0.271751 1.20057,-0.549209 1.807641,-0.808736 1.768766,-0.766945 3.563019,-1.485326 5.419823,-2.012799 2.445102,-0.656553 4.937413,-1.111915 7.457945,-1.36374 3.628107,-0.328321 7.266702,-0.473538 10.91044,-0.412379 h 8.5602 c 0.28627,-2.167742 0.60122,-4.331464 0.99891,-6.482808 0.71097,-3.596588 1.61591,-6.427554 4.18166,-9.171534 1.45313,-1.216517 1.70395,-1.641654 3.59048,-2.285647 0.77033,-0.262962 1.55571,-0.380534 2.34197,-0.389124 1.31045,-0.01432 2.62331,0.274158 3.87108,0.698666 3.00021,1.115978 5.82225,2.627955 7.81503,5.221386 0.87162,1.221286 1.17789,1.589178 1.94458,2.931604 1.31057,2.294689 2.27546,4.763584 2.94349,7.317898 0.90935,3.618484 1.59755,7.279169 2.18282,10.963672 0.54162,3.295187 0.90419,6.606138 0.75292,9.952366 -0.006,3.494429 -0.0149,6.989239 -0.0388,10.483599 -0.0312,4.01107 -0.0686,8.022545 -0.2005,12.031821 -0.14636,4.020574 -0.35982,8.037504 -0.60875,12.053012 -0.17827,4.334263 -0.22918,8.668443 -0.18138,13.006443 0.004,4.29658 0.009,8.59309 0.03,12.88965 0.0237,3.92828 0.0512,7.85689 0.16588,11.78378 0.12427,3.84693 0.29846,7.69337 0.68575,11.52436 0.43326,4.37992 0.82232,8.76277 1.17925,13.14958 0.52402,5.11798 1.0934,10.23314 1.86966,15.32 0.7304,4.45528 1.69523,8.86858 2.94039,13.21004 0.23249,0.6569 0.36593,1.06131 0.50849,1.44798 0.39505,-0.72663 0.76776,-1.4656 1.13533,-2.20452 0.14027,-0.32217 0.75016,-1.69379 0.91519,-2.16007 0.39906,-1.12745 0.5158,-2.33422 0.73898,-3.50212 0.24446,-1.74678 0.52278,-3.49703 0.56068,-5.26324 0.0645,-2.37227 -7.9e-4,-4.74664 0.003,-7.11946 -0.0221,-2.6656 -0.0527,-5.33144 -0.1385,-7.9959 -0.12085,-3.40101 -0.28847,-6.80026 -0.54983,-10.19369 -0.30852,-4.09286 -0.64124,-8.18307 -0.98392,-12.27315 -0.18101,-4.43788 -0.31731,-8.91264 0.37103,-13.31754 0.82091,-4.61467 1.70783,-8.09339 5.3604,-11.329019 0.5376,-0.38983 1.04948,-0.817838 1.61282,-1.169438 2.74238,-1.711595 5.99061,-2.363994 9.09867,-3.052011 0.26439,-0.04597 0.52819,-0.09432 0.7922,-0.142626 -0.10236,-1.286251 -0.15238,-2.576163 -0.1881,-3.865914 -0.0308,-1.431476 -0.11464,-2.880204 0.21756,-4.28811 0.10224,-0.433309 0.25338,-0.8533 0.38033,-1.280025 1.06453,-2.775146 3.23467,-4.221129 5.70973,-5.587773 1.47199,-0.796782 3.023,-1.417209 4.61884,-1.910477 0.39328,-0.286104 0.80529,-0.545729 1.23455,-0.775663 V 0 Z M 122.7429,21.648291 c -0.006,6.08e-4 -0.0112,0.0021 -0.014,0.0047 l -5.3e-4,5.29e-4 -5.3e-4,5.3e-4 -5.3e-4,5.29e-4 v 5.29e-4 l -5.3e-4,5.29e-4 v 5.29e-4 c -0.002,0.0061 0.003,0.01625 0.0176,0.02997 0.14206,0.135374 0.38592,0.168109 0.65215,0.151929 -0.24764,-0.08467 -0.57651,-0.196951 -0.6537,-0.189653 z m 1.47329,0.446484 c -0.46995,0.959273 -0.65525,2.023417 -0.84284,3.073198 -0.58216,3.16324 -0.96901,6.354716 -1.36839,9.544638 -0.53517,3.957373 -0.93965,7.930965 -1.33584,11.904181 -0.38631,3.757808 -0.5346,7.533214 -0.64544,11.307321 -0.0986,3.95579 -0.0908,7.912126 -0.25735,11.865943 -0.25509,4.357132 -0.56247,8.711221 -0.80667,13.068969 -0.27231,4.576202 -0.7066,9.139799 -0.9958,13.714926 -0.25456,4.282779 -0.35977,8.572249 -0.43977,12.861229 -0.0614,3.72422 -0.0797,7.44884 -0.0946,11.17348 -0.0122,3.15249 -0.0145,6.30531 -0.0165,9.45782 -10e-4,3.64581 -10e-4,7.29151 -0.002,10.93732 -0.0356,3.71781 -0.33014,7.42586 -0.555,11.13523 -0.13437,3.3523 -0.34974,6.6947 -0.85008,10.01335 -0.45368,2.54431 -1.06205,5.09593 -2.15542,7.4507 -0.21696,0.46727 -0.47,0.91709 -0.70487,1.37563 -1.49867,2.81103 -3.87633,4.89632 -6.40323,6.75359 -1.22151,0.88499 -2.48871,1.72476 -3.85816,2.36627 -0.36779,0.17228 -0.72556,0.38322 -1.12035,0.47852 -0.88889,0.21465 -1.80451,0.29697 -2.706811,0.44545 -0.774671,-0.0764 -1.559258,-0.0862 -2.324404,-0.22944 -2.502231,-0.46827 -5.551969,-1.8064 -7.639844,-3.25562 -0.596434,-0.41399 -1.142317,-0.89654 -1.713592,-1.34462 -3.187266,-2.81652 -5.170646,-6.61644 -7.028511,-10.37352 -1.763956,-3.73809 -2.979724,-7.68062 -3.9703,-11.6825 -1.052669,-4.27092 -1.50821,-8.6493 -1.855185,-13.02401 -0.291512,-4.55617 -0.498014,-9.11673 -0.778764,-13.67358 -0.316235,-4.60646 -0.485968,-9.22071 -0.605131,-13.83585 -0.05805,-5.02855 -0.140626,-10.05384 -0.345199,-15.078665 -0.162661,-4.421749 -0.74776,-8.808464 -1.303795,-13.192993 -0.317281,-2.668048 -0.57522,-5.34229 -0.789615,-8.020182 -0.455213,0.06999 -0.935066,0.121102 -1.439706,0.151413 -0.621078,0.03731 -1.252075,-0.04248 -1.872753,-5.29e-4 0.04304,0.0011 0.08825,0.0061 0.09612,0.02119 0.0013,0.0033 0.0013,0.0081 -0.0011,0.01241 -0.04029,0.0705 -0.154697,0.04917 -0.232027,0.07389 -0.974701,0.661744 -1.803066,1.50739 -2.594673,2.3735 -1.307269,1.6079 -2.497333,3.328234 -3.411162,5.190898 -0.802193,1.815161 -1.394381,3.720396 -1.953371,5.622912 -0.504926,1.753454 -0.781135,3.556801 -0.98185,5.366596 -0.156901,1.638843 -0.205378,3.285363 -0.244946,4.93045 -0.04099,1.70017 -0.02254,3.40083 -0.08113,5.10046 -0.10835,2.26638 -0.182795,4.53429 -0.230995,6.80269 -0.04349,2.31499 -0.06047,4.62999 -0.07441,6.94531 -0.009,1.57422 -0.01228,3.14847 -0.01447,4.72271 0.08722,1.47483 0.166774,2.95021 0.222726,4.4266 0.05963,1.68376 0.08193,3.36828 0.09818,5.05292 0.01603,1.84443 0.01744,3.68903 0.01963,5.53352 0.0024,2.34479 0.0026,4.6894 0.0031,7.03419 2.64e-4,1.80802 5.29e-4,3.61594 5.29e-4,5.42396 5.3e-5,1.55448 -8e-6,3.10932 0,4.6638 8e-6,1.59652 0,3.19285 0,4.78937 0.0172,0.93426 0.245049,1.86759 0.641821,2.71301 0.602702,1.07115 1.295979,2.07968 2.007113,3.08147 0.951296,1.17091 1.495655,2.61213 2.378668,3.81992 1.136809,1.26296 2.580531,2.22089 3.92689,3.24838 1.578589,1.19966 3.260492,2.2466 4.965589,3.25355 1.141667,0.70869 2.318279,1.35439 3.50728,1.97869 9.133821,4.7958 4.288102,14.02312 -4.845183,9.22631 -1.343054,-0.70538 -2.67155,-1.4359 -3.963064,-2.23294 -2.058201,-1.21672 -4.082592,-2.49187 -5.987232,-3.94136 -2.260079,-1.72516 -4.624321,-3.39527 -6.277652,-5.75624 -0.759725,-1.17841 -1.396985,-2.41696 -2.203485,-3.56464 -1.164376,-1.64067 -2.280184,-3.3155 -3.142959,-5.14025 -0.846116,-2.13735 -1.443376,-4.36734 -1.428856,-6.6859 0,-1.59651 8e-6,-3.19287 0,-4.78937 -8e-6,-1.55437 5.3e-5,-3.10892 0,-4.66328 -6.6e-5,-1.80748 -1.61e-4,-3.61492 -5.29e-4,-5.42241 -5.29e-4,-2.34136 -7.94e-4,-4.6825 -0.0031,-7.02386 -0.0021,-1.81512 -0.0039,-3.6306 -0.01963,-5.44567 -0.01527,-1.58723 -0.03483,-3.17451 -0.09043,-4.76094 -0.06041,-1.61216 -0.167379,-3.22139 -0.230479,-4.8333 0.0024,-1.59025 0.0054,-3.18054 0.01447,-4.77077 0.01429,-2.36845 0.03221,-4.73689 0.077,-7.10499 0.0497,-2.32248 0.12397,-4.64452 0.235127,-6.96495 0.06693,-1.65513 0.02503,-3.31238 0.07751,-4.96817 0.04763,-1.950347 0.110479,-3.902604 0.307475,-5.844606 0.27491,-2.411931 0.660106,-4.813525 1.341519,-7.148401 0.741384,-2.50588 1.534848,-5.013418 2.651001,-7.380944 1.402162,-2.722615 3.087203,-5.299726 5.105114,-7.610388 2.207136,-2.321718 4.623528,-4.512003 7.789188,-5.386234 1.462421,-0.322072 2.923228,-0.46143 4.41937,-0.389641 0.288663,0.01384 0.56933,0.03471 0.841809,0.06201 -0.08955,-2.501876 -0.146024,-5.005091 -0.190685,-7.508068 -0.06926,-3.058088 0.0041,-6.118407 -0.172601,-9.173083 -0.07164,-2.61439 -0.628851,-5.155353 -1.386478,-7.646045 -0.579794,-1.490173 -0.964295,-3.094191 -1.847948,-4.446757 -0.46818,-0.716616 -0.756613,-1.012174 -1.316717,-1.670698 -1.461775,-1.678575 -3.378695,-2.820498 -5.398119,-3.70055 -1.410592,-0.510807 -2.887224,-0.823325 -4.391464,-0.836126 -0.688983,-0.0058 -2.072196,0.113102 -2.72128,0.161232 -1.04988,0.154472 -2.193139,0.219692 -3.150195,0.740524 -0.496046,0.269946 -0.951828,0.958249 -1.294495,1.362707 -1.701006,2.212388 -2.627768,4.862891 -3.564126,7.457943 -1.187979,3.417803 -1.938557,6.970104 -2.580719,10.524937 -0.49884,3.69098 -1.154369,7.35692 -1.740463,11.033953 -0.518078,3.452109 -0.70638,6.940087 -0.849043,10.424171 -0.144807,4.365379 -0.174503,8.73365 -0.204123,13.101008 -0.01828,3.744248 0.472331,7.454315 0.992187,11.152806 0.08558,0.63926 0.161655,1.279734 0.256315,1.917713 0.292936,1.974207 0.658728,3.933707 0.908989,5.914887 0.265639,2.10294 0.297127,2.68447 0.488344,4.82451 0.388938,5.01548 0.570008,10.04216 0.488858,15.07143 -0.10101,4.43784 -0.580652,8.85264 -1.011309,13.26689 -0.29595,3.31536 -0.89906,6.58962 -1.360122,9.88312 -0.384408,2.89893 -0.861235,5.77829 -1.532208,8.62479 -0.62035,2.76213 -1.631709,5.37731 -2.896981,7.90133 -0.508487,0.90818 -1.044694,1.82435 -1.642793,2.69648 0.01217,0.80464 0.01992,1.60963 0.02739,2.41432 0.01683,2.1252 0.01995,4.25058 0.02326,6.37584 0.09172,1.88232 -0.207388,3.7283 -0.702284,5.53609 -1.295087,4.085 -3.956663,5.09306 -7.758182,5.92367 -1.844975,0.31524 -3.708677,0.53303 -5.577954,0.62735 v 10.93992 h 160.00005 v -82.2384 c -1.58149,0.8794 -3.72458,1.15642 -6.28696,0.28888 -2.64742,-0.89634 -4.17716,-2.02434 -5.54436,-4.48707 -1.09559,-2.20862 -1.73871,-4.45197 -1.73271,-6.92929 -1.34528,0.32471 -2.68606,0.7668 -3.55948,1.62367 -1.02602,1.35844 -1.17546,3.21472 -1.44435,4.84208 -0.53083,3.67836 -0.38255,7.41384 -0.2279,11.11457 0.35004,3.97091 0.66338,7.94367 0.96325,11.91865 0.27198,3.53081 0.44625,7.0679 0.57258,10.60659 0.0896,2.75917 0.12221,5.51973 0.14521,8.28012 0.005,2.48916 0.0514,4.97908 -0.006,7.46776 -0.0367,2.16124 -0.36057,4.30275 -0.65733,6.43991 -0.2794,1.62886 -0.51052,3.28149 -1.02112,4.85966 -0.44814,1.38511 -0.81377,2.15603 -1.38442,3.4897 -0.863,1.79166 -1.76837,3.57515 -2.836,5.25601 -0.69261,1.09043 -1.59062,2.41059 -2.59209,3.23702 -0.70205,0.57935 -1.52617,0.99258 -2.28926,1.48879 -1.02201,0.22511 -2.02175,0.73652 -3.06648,0.67542 -4.8161,-0.28165 -7.46975,-3.87021 -9.24337,-7.87756 -0.36619,-0.82737 -0.64145,-1.69233 -0.96221,-2.53835 -1.50799,-4.95275 -2.59968,-10.01991 -3.44682,-15.12362 -0.81378,-5.29712 -1.40792,-10.62382 -1.9544,-15.95407 -0.36096,-4.39868 -0.74839,-8.7937 -1.18288,-13.18575 -0.41047,-4.05981 -0.5982,-8.13644 -0.7307,-12.21321 -0.11814,-4.01841 -0.14675,-8.03835 -0.17105,-12.05818 -0.0212,-4.31426 -0.026,-8.62857 -0.03,-12.942881 -0.049,-4.483412 0.007,-8.962977 0.18965,-13.44259 0.24444,-3.999704 0.46149,-8.000357 0.60668,-12.004953 0.1277,-3.9102 0.16339,-7.822761 0.19379,-11.734683 0.0236,-3.473654 0.0328,-6.947348 0.0388,-10.42107 0.14339,-2.793159 -0.14882,-5.478084 -0.61185,-8.224819 -0.54682,-3.399581 -1.15875,-6.782768 -2.0066,-10.120831 -0.59103,-2.458419 -1.73387,-4.674265 -3.22771,-6.694165 -0.62658,-0.616109 -1.44824,-0.995455 -2.27738,-1.302763 z m -20.90828,15.768547 c -1.34099,-0.01617 -2.68074,0.04304 -4.020948,0.07907 -1.705803,0.04223 -3.412315,0.0608 -5.11855,0.0739 -1.580343,0.01061 -3.16094,0.01426 -4.741312,0.01707 -1.205722,-0.0068 -2.410073,0.05955 -3.614766,0.100766 -1.146313,0.05892 -2.272067,0.280387 -3.390493,0.524518 -0.739502,0.182087 -1.473494,0.418463 -2.139402,0.792716 -0.277323,0.144653 -0.485098,0.366114 -0.655257,0.623734 -0.290856,0.440354 -0.607224,0.761849 -0.927076,0.980302 0.786731,2.871558 1.349711,5.794603 1.446424,8.784995 0.173538,3.187581 0.131755,6.378901 0.187069,9.569958 0.06868,3.86211 0.16524,7.724323 0.375687,11.581723 0.25926,4.3517 0.609811,8.698743 1.121378,13.02866 0.593339,4.679108 1.205698,9.361535 1.377693,14.080278 0.206407,5.076508 0.293847,10.153918 0.350367,15.234208 0.115554,4.49119 0.280056,8.98108 0.588595,13.46378 0.276471,4.49699 0.484161,8.99767 0.766879,13.49427 0.299011,3.81126 0.674481,7.62871 1.585433,11.35124 0.802611,3.27801 1.77977,6.50868 3.203938,9.57823 0.81797,1.67735 0.547563,1.17693 1.478978,2.85977 0.621332,1.12259 1.241835,2.29163 2.068092,3.283 0.221073,0.26525 0.476115,0.50023 0.714169,0.75035 0.757486,0.67937 1.527177,1.22734 2.463932,1.64641 0.595294,0.26631 1.232736,0.43368 1.818492,0.72037 0.06725,0.0329 0.118171,0.092 0.177252,0.13797 -0.208214,0.10627 -0.434422,0.18244 -0.624253,0.31885 -0.0098,0.007 -0.01564,0.0122 -0.0181,0.0155 v 5.3e-4 h -5.29e-4 l -5.29e-4,5.3e-4 v 5.3e-4 5.3e-4 l -5.3e-4,5.3e-4 v 5.3e-4 5.3e-4 5.3e-4 h 5.3e-4 v 5.3e-4 h 5.29e-4 v 5.3e-4 h 5.29e-4 c 0.02609,0.005 0.284763,-0.10949 0.382923,-0.15245 0.17216,-0.0754 0.339495,-0.16169 0.505913,-0.24909 0.677074,-0.35547 1.308044,-0.78704 1.923403,-1.23971 1.24695,-0.90352 2.54664,-1.83229 3.32951,-3.19205 0.95728,-1.71804 1.45485,-3.62753 1.78284,-5.55883 0.47448,-2.99902 0.60204,-6.02977 0.74775,-9.05941 0.21235,-3.49971 0.49179,-6.99793 0.53589,-10.5053 0,-3.64754 -5.3e-4,-7.2949 0.002,-10.94247 0.002,-3.16438 0.005,-6.32917 0.0165,-9.49348 0.0152,-3.77561 0.0336,-7.55132 0.0961,-11.32644 0.0831,-4.44377 0.1942,-8.888 0.4594,-13.325291 0.28871,-4.5501 0.71532,-9.089125 0.99116,-13.639993 0.24213,-4.310986 0.5427,-8.61827 0.79943,-12.92841 0.16849,-3.908099 0.14725,-7.819495 0.2527,-11.729516 0.11877,-4.016994 0.28064,-8.035335 0.69195,-12.034925 0.25688,-2.574597 0.51729,-5.148979 0.81287,-7.719425 h -0.77773 -3.40496 z m 44.29032,139.981638 c -0.10203,0.0565 -0.22306,0.12236 -0.36846,0.19999 -0.0938,0.14258 -0.36913,0.2813 -0.28163,0.42788 0.0791,0.1325 0.27404,-0.15541 0.37413,-0.27285 0.0973,-0.11418 0.18834,-0.23313 0.27596,-0.35502 z m -124.24565,1.68568 c -0.02782,0.0435 -0.05608,0.0871 -0.08372,0.13075 -0.02378,0.0375 -0.06403,0.14347 -0.02119,0.13177 0.05114,-0.014 0.04475,-0.0962 0.06718,-0.14418 0.01286,-0.0393 0.02576,-0.0789 0.03772,-0.11834 z" />
    </clipPath>
  </defs>
  <g
     inkscape:label="Layer 1"
     inkscape:groupmode="layer"
     id="layer1">
    <rect
       style="fill:#ff0000;stroke-width:0.189209"
       id="rect1"
       width="160"
       height="200"
       x="20"
       y="-1.2316074e-14"
       clip-path="url(#clipPath69)" />
  </g>
</svg>
